<?xml version="1.0" encoding="UTF-8" standalone="no"?>
<!DOCTYPE svg PUBLIC "-//W3C//DTD SVG 1.1//EN" "http://www.w3.org/Graphics/SVG/1.1/DTD/svg11.dtd">
<svg width="100%" height="100%" viewBox="0 0 2481 3508" version="1.1" xmlns="http://www.w3.org/2000/svg" xmlns:xlink="http://www.w3.org/1999/xlink" xml:space="preserve" xmlns:serif="http://www.serif.com/" style="fill-rule:evenodd;clip-rule:evenodd;stroke-linejoin:round;stroke-miterlimit:1.5;">
    <rect x="2.088" y="-2.931" width="2579.64" height="3760.61" style="fill:rgb(105,252,234);stroke:black;stroke-width:24.6px;"/>
    <g transform="matrix(1,0,0,1,367.821,-795.412)">
        <path d="M539.209,1058.42C539.209,1069.15 533.792,1074.51 522.958,1074.51C519.203,1074.51 516.254,1073.17 514.108,1070.49C512.607,1068.02 511.051,1065.5 509.442,1062.93C502.792,1054.35 493.942,1050.05 482.893,1050.05C463.907,1050.05 454.414,1060.84 454.414,1082.39C454.414,1089.9 456.13,1096.34 459.563,1101.7C462.459,1106.32 467.661,1111.52 475.17,1117.31C492.118,1130.29 502.684,1139.25 506.868,1144.18C515.664,1154.26 520.062,1165.85 520.062,1178.94C520.062,1196.1 514.484,1210.07 503.328,1220.85C492.172,1231.63 477.637,1237.02 459.724,1237.02C442.668,1237.02 428.67,1232.57 417.728,1223.67C407.109,1215.09 401.799,1204.25 401.799,1191.16C401.799,1177.97 407.513,1171.37 418.94,1171.37C428.536,1171.37 433.495,1178.72 433.819,1193.42C441.518,1202.64 450.181,1207.26 459.807,1207.26C467.827,1207.26 474.377,1204.81 479.457,1199.93C484.537,1195.05 487.077,1188.96 487.077,1181.67C487.077,1175.02 483.966,1168.75 477.745,1162.85C477.637,1162.63 469.753,1156.36 454.092,1144.02C432.424,1126.86 421.59,1106.75 421.59,1083.68C421.59,1064.91 427.356,1049.73 438.887,1038.15C450.418,1026.56 465.516,1020.77 484.181,1020.77C499.52,1020.77 512.66,1024.79 523.601,1032.84C534.006,1040.45 539.209,1048.98 539.209,1058.42Z" style="fill-rule:nonzero;"/>
        <path d="M731.968,1128.9C731.968,1156.36 723.789,1178.27 707.431,1194.62C691.073,1210.98 669.163,1219.16 641.703,1219.16C626.364,1219.16 611.4,1215.78 596.811,1209.02C594.41,1234.13 592.425,1249.57 590.858,1255.36C588.163,1264.8 583.257,1269.52 576.141,1269.52C571.61,1269.52 567.782,1268.13 564.655,1265.34C561.528,1262.55 559.965,1259.12 559.965,1255.04C559.965,1255.69 560.823,1248.87 562.54,1234.61C564.685,1217.87 566.348,1199.8 567.527,1180.38C569.244,1152.5 570.102,1122.35 570.102,1089.96C570.102,1083.52 569.995,1076.15 569.78,1067.83C569.566,1059.52 569.458,1054.51 569.458,1052.79C569.458,1038.52 574.446,1031.39 584.422,1031.39C594.827,1031.39 600.19,1036.32 600.512,1046.19L600.834,1056.01C613.706,1043.56 630.386,1037.34 650.874,1037.34C675.224,1037.34 694.747,1045.5 709.442,1061.8C724.46,1078.43 731.968,1100.79 731.968,1128.9ZM699.949,1128.9C699.949,1109.27 695.39,1094.03 686.272,1083.2C677.155,1072.37 664.497,1066.95 648.3,1066.95C622.985,1066.95 607.377,1074.94 601.478,1090.92L601.478,1106.85C601.478,1131.74 600.834,1156.19 599.547,1180.22C613.384,1186.87 627.436,1190.2 641.703,1190.2C660.26,1190.2 674.607,1184.89 684.744,1174.27C694.881,1163.65 699.949,1148.53 699.949,1128.9Z" style="fill-rule:nonzero;"/>
        <path d="M934.543,1115.7C934.543,1147.24 925.318,1172.37 906.868,1191.08C888.418,1209.8 863.8,1219.16 833.014,1219.16C807.485,1219.16 787.479,1210.45 772.998,1193.02C758.517,1175.58 751.277,1151.37 751.277,1120.37C751.277,1087.76 760.019,1062.44 777.503,1044.42C794.666,1026.72 818.48,1017.87 848.944,1017.87C874.473,1017.87 895.122,1026.83 910.89,1044.74C926.659,1062.66 934.543,1086.31 934.543,1115.7ZM902.524,1116.02C902.524,1094.46 897.294,1077.6 886.836,1065.42C876.377,1053.25 862.084,1047.16 843.956,1047.16C803.516,1047.16 783.296,1071.45 783.296,1120.05C783.296,1142.46 787.694,1159.71 796.49,1171.78C805.286,1183.84 817.89,1189.88 834.302,1189.88C855.54,1189.88 872.221,1183.39 884.342,1170.41C896.463,1157.43 902.524,1139.3 902.524,1116.02Z" style="fill-rule:nonzero;"/>
        <path d="M1136.8,1115.7C1136.8,1147.24 1127.57,1172.37 1109.12,1191.08C1090.67,1209.8 1066.05,1219.16 1035.27,1219.16C1009.74,1219.16 989.732,1210.45 975.251,1193.02C960.77,1175.58 953.529,1151.37 953.529,1120.37C953.529,1087.76 962.272,1062.44 979.756,1044.42C996.919,1026.72 1020.73,1017.87 1051.2,1017.87C1076.73,1017.87 1097.38,1026.83 1113.14,1044.74C1128.91,1062.66 1136.8,1086.31 1136.8,1115.7ZM1104.78,1116.02C1104.78,1094.46 1099.55,1077.6 1089.09,1065.42C1078.63,1053.25 1064.34,1047.16 1046.21,1047.16C1005.77,1047.16 985.549,1071.45 985.549,1120.05C985.549,1142.46 989.947,1159.71 998.742,1171.78C1007.54,1183.84 1020.14,1189.88 1036.55,1189.88C1057.79,1189.88 1074.47,1183.39 1086.6,1170.41C1098.72,1157.43 1104.78,1139.3 1104.78,1116.02Z" style="fill-rule:nonzero;"/>
        <path d="M1323.6,1123.26C1323.6,1148.79 1319.43,1174.16 1311.09,1199.37C1305.96,1215.03 1299.6,1222.86 1292.02,1222.86C1287.95,1222.86 1284.48,1221.6 1281.59,1219.08C1278.7,1216.56 1277.26,1213.53 1277.26,1209.99C1277.26,1209.02 1279.84,1199.24 1284.99,1180.63C1290.13,1162.02 1292.71,1143.54 1292.71,1125.19C1292.71,1083.47 1279.65,1062.6 1253.54,1062.6C1238.6,1062.6 1226.41,1068.13 1216.95,1079.18C1207.17,1090.55 1202.28,1105.57 1202.28,1124.23C1202.28,1134.63 1203.76,1149.14 1206.71,1167.75C1209.66,1186.36 1211.13,1199.64 1211.13,1207.58C1211.13,1226.03 1205.88,1235.25 1195.36,1235.25C1190,1235.25 1186.3,1234.07 1184.26,1231.71C1182.65,1229.89 1181.31,1226.13 1180.24,1220.45C1180.13,1213.8 1178.79,1194.6 1176.22,1162.85C1171.82,1118.44 1169.62,1086.9 1169.62,1068.24C1169.62,1035.73 1175.89,1019.48 1188.44,1019.48C1192.52,1019.48 1196.01,1020.74 1198.9,1023.26C1201.8,1025.79 1203.25,1028.71 1203.25,1032.03C1203.25,1034.39 1202.6,1038.85 1201.32,1045.39C1200.03,1051.93 1199.39,1057.46 1199.39,1061.96L1199.39,1065.66C1215.26,1044.1 1234.57,1033.32 1257.31,1033.32C1278.23,1033.32 1294.51,1041.07 1306.14,1056.57C1317.78,1072.07 1323.6,1094.3 1323.6,1123.26Z" style="fill-rule:nonzero;"/>
        <path d="M1416.92,1191.16C1416.92,1199.1 1414.54,1205.49 1409.76,1210.31C1404.99,1215.14 1398.69,1217.55 1390.86,1217.55C1383.99,1217.55 1378.34,1215.22 1373.88,1210.55C1369.43,1205.89 1367.21,1199.96 1367.21,1192.77C1367.21,1186.02 1369.65,1180.28 1374.53,1175.56C1379.41,1170.84 1385.39,1168.48 1392.47,1168.48C1408.77,1168.48 1416.92,1176.04 1416.92,1191.16Z" style="fill-rule:nonzero;"/>
    </g>
    <g>
        <g id="spoon" transform="matrix(1.07978,0,0,1.08617,606.627,-76.9013)">
            <path d="M525.47,756.71C525.47,756.71 342.792,734.72 333.048,1057.79C326.072,1289.14 527.733,1266.06 539.052,1266.06C550.371,1266.06 710.487,1253.98 699.781,1044.21C686.268,779.451 575.273,758.974 525.47,756.71Z" style="fill:rgb(255,234,213);stroke:black;stroke-width:28.17px;stroke-linecap:round;"/>
        </g>
        <g id="spoon1" serif:id="spoon" transform="matrix(0.122417,-0.0910381,0.14784,0.198796,1032.9,701.709)">
            <path d="M525.47,756.71C525.47,756.71 342.792,734.72 333.048,1057.79C326.072,1289.14 527.733,1266.06 539.052,1266.06C550.371,1266.06 710.487,1253.98 699.781,1044.21C686.268,779.451 575.273,758.974 525.47,756.71Z" style="fill:rgb(255,248,241);"/>
        </g>
        <path d="M1092.57,1094.72C1092.57,1094.72 1118.96,1115.24 1162.93,1118.17C1206.9,1121.1 1247.94,1074.2 1247.94,1074.2" style="fill:none;stroke:black;stroke-width:24.6px;stroke-linecap:round;"/>
        <g transform="matrix(0.792586,0,0,1,230.871,0)">
            <ellipse cx="1105.76" cy="1003.84" rx="7.329" ry="5.863"/>
            <path d="M1105.97,991.152L1106.17,991.155L1106.38,991.161L1106.58,991.168L1106.79,991.177L1106.99,991.188L1107.19,991.201L1107.39,991.217L1107.6,991.235L1107.8,991.254L1108,991.276L1108.19,991.298L1108.39,991.324L1108.6,991.352L1108.79,991.381L1108.98,991.411L1109.18,991.445L1109.38,991.481L1109.57,991.517L1109.76,991.555L1109.95,991.595L1110.15,991.639L1110.34,991.683L1110.52,991.728L1110.71,991.777L1110.9,991.827L1111.09,991.879L1111.27,991.931L1111.45,991.986L1111.64,992.043L1111.82,992.101L1112,992.16L1112.18,992.224L1112.36,992.287L1112.53,992.351L1112.71,992.418L1112.88,992.487L1113.06,992.556L1113.23,992.628L1113.4,992.701L1113.57,992.776L1113.73,992.85L1113.9,992.929L1114.07,993.009L1114.23,993.09L1114.39,993.172L1114.56,993.255L1114.72,993.341L1114.87,993.426L1115.03,993.514L1115.18,993.604L1115.34,993.697L1115.49,993.787L1115.64,993.88L1115.79,993.978L1115.94,994.073L1116.08,994.169L1116.23,994.269L1116.37,994.371L1116.52,994.472L1116.65,994.575L1116.79,994.679L1116.93,994.786L1117.06,994.891L1117.2,994.998L1117.33,995.111L1117.46,995.221L1117.59,995.331L1117.72,995.444L1117.84,995.56L1117.97,995.675L1118.09,995.791L1118.21,995.908L1118.33,996.027L1118.44,996.149L1118.56,996.27L1118.67,996.392L1118.78,996.515L1118.89,996.64L1119,996.768L1119.1,996.891L1119.21,997.019L1119.31,997.151L1119.41,997.28L1119.51,997.413L1119.61,997.543L1119.7,997.676L1119.79,997.814L1119.88,997.946L1119.97,998.081L1120.06,998.219L1120.14,998.359L1120.23,998.499L1120.31,998.638L1120.38,998.776L1120.46,998.918L1120.54,999.064L1120.61,999.207L1120.68,999.35L1120.75,999.498L1120.81,999.644L1120.88,999.792L1120.94,999.94L1120.99,1000.08L1121.05,1000.24L1121.11,1000.39L1121.16,1000.54L1121.21,1000.69L1121.26,1000.84L1121.3,1001L1121.35,1001.15L1121.39,1001.3L1121.42,1001.46L1121.46,1001.61L1121.5,1001.77L1121.53,1001.93L1121.55,1002.08L1121.58,1002.24L1121.61,1002.4L1121.63,1002.56L1121.64,1002.72L1121.66,1002.88L1121.68,1003.04L1121.69,1003.2L1121.7,1003.36L1121.7,1003.52L1121.71,1003.68L1121.71,1003.84L1121.71,1004L1121.7,1004.17L1121.7,1004.33L1121.69,1004.49L1121.68,1004.65L1121.66,1004.81L1121.64,1004.97L1121.63,1005.13L1121.61,1005.28L1121.58,1005.44L1121.55,1005.6L1121.53,1005.76L1121.5,1005.91L1121.46,1006.07L1121.42,1006.22L1121.39,1006.38L1121.35,1006.54L1121.3,1006.69L1121.26,1006.84L1121.21,1007L1121.16,1007.15L1121.11,1007.3L1121.05,1007.45L1120.99,1007.6L1120.94,1007.74L1120.88,1007.89L1120.81,1008.04L1120.75,1008.19L1120.68,1008.33L1120.61,1008.48L1120.54,1008.62L1120.46,1008.76L1120.38,1008.91L1120.31,1009.05L1120.23,1009.19L1120.14,1009.32L1120.06,1009.47L1119.97,1009.6L1119.88,1009.74L1119.79,1009.87L1119.7,1010.01L1119.61,1010.14L1119.51,1010.27L1119.41,1010.4L1119.31,1010.53L1119.21,1010.67L1119.1,1010.79L1119,1010.92L1118.89,1011.04L1118.78,1011.17L1118.67,1011.29L1118.56,1011.41L1118.44,1011.53L1118.33,1011.65L1118.2,1011.78L1118.09,1011.89L1117.97,1012.01L1117.84,1012.12L1117.72,1012.24L1117.59,1012.35L1117.46,1012.46L1117.33,1012.57L1117.2,1012.68L1117.06,1012.79L1116.93,1012.9L1116.79,1013L1116.65,1013.11L1116.52,1013.21L1116.37,1013.31L1116.23,1013.42L1116.08,1013.51L1115.94,1013.61L1115.79,1013.71L1115.64,1013.8L1115.49,1013.9L1115.34,1013.99L1115.18,1014.08L1115.03,1014.17L1114.88,1014.26L1114.71,1014.34L1114.55,1014.43L1114.39,1014.51L1114.23,1014.59L1114.07,1014.67L1113.91,1014.75L1113.74,1014.83L1113.57,1014.91L1113.4,1014.98L1113.23,1015.06L1113.05,1015.13L1112.88,1015.2L1112.71,1015.26L1112.54,1015.33L1112.36,1015.4L1112.18,1015.46L1112,1015.52L1111.82,1015.58L1111.64,1015.64L1111.45,1015.7L1111.27,1015.75L1111.09,1015.81L1110.9,1015.86L1110.71,1015.91L1110.53,1015.96L1110.34,1016L1110.14,1016.05L1109.96,1016.09L1109.76,1016.13L1109.57,1016.17L1109.38,1016.2L1109.18,1016.24L1108.99,1016.27L1108.79,1016.3L1108.59,1016.33L1108.39,1016.36L1108.19,1016.38L1107.99,1016.41L1107.8,1016.43L1107.6,1016.45L1107.39,1016.47L1107.19,1016.48L1106.99,1016.5L1106.78,1016.51L1106.58,1016.52L1106.38,1016.52L1106.18,1016.53L1105.97,1016.53L1105.76,1016.53L1105.56,1016.53L1105.35,1016.53L1105.15,1016.52L1104.95,1016.52L1104.74,1016.51L1104.54,1016.5L1104.34,1016.48L1104.14,1016.47L1103.93,1016.45L1103.73,1016.43L1103.54,1016.41L1103.34,1016.38L1103.13,1016.36L1102.94,1016.33L1102.74,1016.3L1102.54,1016.27L1102.35,1016.24L1102.15,1016.2L1101.96,1016.17L1101.76,1016.13L1101.57,1016.09L1101.38,1016.05L1101.19,1016L1101,1015.96L1100.82,1015.91L1100.63,1015.86L1100.44,1015.81L1100.26,1015.75L1100.07,1015.7L1099.89,1015.64L1099.71,1015.58L1099.53,1015.52L1099.35,1015.46L1099.17,1015.4L1098.99,1015.33L1098.82,1015.26L1098.65,1015.2L1098.48,1015.13L1098.3,1015.06L1098.13,1014.98L1097.96,1014.91L1097.79,1014.83L1097.62,1014.75L1097.46,1014.67L1097.3,1014.6L1097.13,1014.51L1096.98,1014.43L1096.82,1014.35L1096.65,1014.26L1096.5,1014.17L1096.34,1014.08L1096.19,1013.99L1096.04,1013.9L1095.89,1013.8L1095.74,1013.71L1095.59,1013.61L1095.44,1013.51L1095.3,1013.42L1095.15,1013.31L1095.01,1013.21L1094.87,1013.11L1094.74,1013L1094.6,1012.9L1094.46,1012.79L1094.33,1012.68L1094.2,1012.57L1094.07,1012.46L1093.94,1012.35L1093.81,1012.24L1093.69,1012.12L1093.56,1012.01L1093.44,1011.89L1093.32,1011.78L1093.2,1011.65L1093.09,1011.53L1092.97,1011.41L1092.86,1011.29L1092.75,1011.17L1092.64,1011.05L1092.53,1010.92L1092.42,1010.79L1092.32,1010.67L1092.22,1010.53L1092.12,1010.4L1092.02,1010.27L1091.92,1010.14L1091.83,1010.01L1091.74,1009.87L1091.65,1009.74L1091.56,1009.6L1091.47,1009.47L1091.38,1009.32L1091.3,1009.19L1091.22,1009.05L1091.14,1008.91L1091.07,1008.76L1090.99,1008.62L1090.92,1008.48L1090.85,1008.33L1090.78,1008.19L1090.72,1008.04L1090.65,1007.89L1090.59,1007.75L1090.54,1007.6L1090.48,1007.45L1090.42,1007.3L1090.37,1007.14L1090.32,1007L1090.27,1006.84L1090.23,1006.69L1090.18,1006.54L1090.14,1006.38L1090.1,1006.23L1090.07,1006.07L1090.03,1005.91L1090,1005.76L1089.97,1005.6L1089.95,1005.44L1089.92,1005.28L1089.9,1005.13L1089.88,1004.97L1089.87,1004.81L1089.85,1004.65L1089.84,1004.49L1089.83,1004.33L1089.83,1004.17L1089.82,1004L1089.82,1003.84L1089.82,1003.68L1089.83,1003.52L1089.83,1003.36L1089.84,1003.2L1089.85,1003.04L1089.87,1002.88L1089.88,1002.72L1089.9,1002.56L1089.92,1002.4L1089.95,1002.24L1089.97,1002.08L1090,1001.93L1090.03,1001.77L1090.07,1001.61L1090.1,1001.46L1090.14,1001.3L1090.18,1001.15L1090.23,1001L1090.27,1000.84L1090.32,1000.69L1090.37,1000.54L1090.42,1000.39L1090.48,1000.24L1090.54,1000.08L1090.59,999.937L1090.65,999.792L1090.72,999.644L1090.78,999.498L1090.85,999.35L1090.92,999.207L1090.99,999.064L1091.07,998.918L1091.14,998.776L1091.22,998.638L1091.3,998.499L1091.38,998.359L1091.47,998.219L1091.56,998.081L1091.65,997.946L1091.73,997.814L1091.83,997.676L1091.92,997.543L1092.02,997.413L1092.12,997.28L1092.22,997.151L1092.32,997.019L1092.42,996.894L1092.53,996.768L1092.64,996.638L1092.75,996.515L1092.86,996.392L1092.97,996.27L1093.09,996.149L1093.2,996.027L1093.32,995.908L1093.44,995.791L1093.56,995.675L1093.69,995.56L1093.81,995.444L1093.94,995.331L1094.07,995.221L1094.2,995.111L1094.33,994.998L1094.46,994.891L1094.6,994.786L1094.74,994.679L1094.87,994.575L1095.01,994.472L1095.15,994.371L1095.3,994.269L1095.44,994.17L1095.59,994.073L1095.74,993.977L1095.89,993.88L1096.04,993.787L1096.19,993.697L1096.34,993.604L1096.5,993.515L1096.66,993.426L1096.81,993.34L1096.97,993.256L1097.13,993.172L1097.3,993.089L1097.46,993.009L1097.63,992.929L1097.8,992.85L1097.96,992.776L1098.13,992.701L1098.3,992.628L1098.47,992.556L1098.64,992.487L1098.82,992.418L1099,992.351L1099.17,992.287L1099.35,992.224L1099.53,992.16L1099.71,992.101L1099.89,992.043L1100.07,991.986L1100.26,991.931L1100.44,991.879L1100.63,991.827L1100.82,991.777L1101.01,991.728L1101.19,991.683L1101.38,991.639L1101.58,991.595L1101.77,991.555L1101.96,991.517L1102.15,991.481L1102.35,991.445L1102.55,991.411L1102.74,991.381L1102.93,991.352L1103.13,991.324L1103.34,991.298L1103.53,991.276L1103.73,991.254L1103.93,991.235L1104.14,991.217L1104.34,991.201L1104.54,991.188L1104.74,991.177L1104.95,991.168L1105.15,991.161L1105.36,991.155L1105.56,991.152L1105.76,991.151L1105.97,991.152ZM1105.75,1002.88L1105.73,1002.88L1105.72,1002.88L1105.7,1002.88L1105.68,1002.88L1105.67,1002.88L1105.65,1002.88L1105.63,1002.88L1105.62,1002.88L1105.6,1002.89L1105.58,1002.89L1105.57,1002.89L1105.55,1002.89L1105.53,1002.89L1105.51,1002.9L1105.5,1002.9L1105.48,1002.9L1105.46,1002.9L1105.45,1002.91L1105.43,1002.91L1105.41,1002.92L1105.4,1002.92L1105.38,1002.92L1105.36,1002.93L1105.34,1002.93L1105.33,1002.94L1105.31,1002.94L1105.29,1002.95L1105.28,1002.95L1105.27,1002.95L1105.25,1002.96L1105.23,1002.97L1105.22,1002.97L1105.2,1002.98L1105.18,1002.98L1105.17,1002.99L1105.16,1002.99L1105.14,1003L1105.13,1003L1105.11,1003.01L1105.1,1003.02L1105.09,1003.02L1105.07,1003.03L1105.06,1003.04L1105.04,1003.04L1105.03,1003.05L1105.02,1003.05L1105.01,1003.06L1104.99,1003.07L1104.98,1003.08L1104.97,1003.08L1104.96,1003.09L1104.95,1003.1L1104.93,1003.1L1104.92,1003.11L1104.91,1003.12L1104.9,1003.13L1104.89,1003.13L1104.88,1003.14L1104.87,1003.15L1104.86,1003.16L1104.85,1003.17L1104.84,1003.17L1104.83,1003.18L1104.82,1003.19L1104.8,1003.2L1104.8,1003.21L1104.79,1003.21L1104.78,1003.22L1104.77,1003.23L1104.76,1003.24L1104.75,1003.25L1104.74,1003.25L1104.73,1003.27L1104.72,1003.27L1104.71,1003.28L1104.7,1003.3L1104.7,1003.3L1104.69,1003.31L1104.68,1003.32L1104.68,1003.33L1104.67,1003.34L1104.66,1003.35L1104.65,1003.36L1104.64,1003.37L1104.64,1003.38L1104.63,1003.39L1104.62,1003.4L1104.62,1003.41L1104.61,1003.42L1104.6,1003.43L1104.6,1003.44L1104.59,1003.45L1104.58,1003.46L1104.58,1003.47L1104.57,1003.48L1104.57,1003.49L1104.56,1003.5L1104.56,1003.51L1104.55,1003.53L1104.55,1003.54L1104.54,1003.55L1104.54,1003.56L1104.53,1003.57L1104.53,1003.58L1104.52,1003.6L1104.52,1003.61L1104.52,1003.62L1104.51,1003.63L1104.51,1003.64L1104.51,1003.65L1104.5,1003.67L1104.5,1003.68L1104.5,1003.69L1104.49,1003.7L1104.49,1003.71L1104.49,1003.72L1104.49,1003.74L1104.49,1003.74L1104.48,1003.76L1104.48,1003.77L1104.48,1003.78L1104.48,1003.79L1104.48,1003.8L1104.48,1003.81L1104.48,1003.82L1104.48,1003.83L1104.48,1003.84L1104.48,1003.86L1104.48,1003.88L1104.48,1003.9L1104.48,1003.92L1104.48,1003.93L1104.49,1003.95L1104.49,1003.96L1104.49,1003.98L1104.5,1004.01L1104.5,1004.02L1104.51,1004.03L1104.51,1004.04L1104.51,1004.05L1104.52,1004.07L1104.52,1004.09L1104.53,1004.1L1104.54,1004.12L1104.54,1004.13L1104.55,1004.14L1104.55,1004.16L1104.56,1004.17L1104.57,1004.19L1104.57,1004.2L1104.58,1004.22L1104.6,1004.24L1104.6,1004.25L1104.62,1004.27L1104.63,1004.3L1104.64,1004.31L1104.65,1004.33L1104.66,1004.33L1104.67,1004.35L1104.68,1004.36L1104.69,1004.37L1104.71,1004.39L1104.72,1004.41L1104.73,1004.42L1104.75,1004.44L1104.77,1004.45L1104.78,1004.46L1104.8,1004.48L1104.8,1004.48L1104.82,1004.5L1104.83,1004.51L1104.85,1004.52L1104.87,1004.53L1104.88,1004.54L1104.89,1004.55L1104.91,1004.56L1104.92,1004.57L1104.93,1004.58L1104.95,1004.59L1104.97,1004.6L1104.98,1004.61L1105.01,1004.62L1105.02,1004.63L1105.04,1004.64L1105.06,1004.65L1105.07,1004.65L1105.1,1004.67L1105.11,1004.67L1105.13,1004.68L1105.14,1004.69L1105.15,1004.69L1105.17,1004.7L1105.19,1004.7L1105.21,1004.71L1105.23,1004.72L1105.26,1004.73L1105.28,1004.73L1105.3,1004.74L1105.33,1004.75L1105.34,1004.75L1105.36,1004.76L1105.39,1004.76L1105.41,1004.77L1105.43,1004.77L1105.46,1004.78L1105.48,1004.78L1105.5,1004.78L1105.53,1004.79L1105.55,1004.79L1105.58,1004.8L1105.6,1004.8L1105.62,1004.8L1105.63,1004.8L1105.65,1004.8L1105.68,1004.81L1105.7,1004.81L1105.72,1004.81L1105.73,1004.81L1105.75,1004.81L1105.76,1004.81L1105.78,1004.81L1105.8,1004.81L1105.81,1004.81L1105.83,1004.81L1105.85,1004.81L1105.86,1004.8L1105.87,1004.8L1105.89,1004.8L1105.91,1004.8L1105.93,1004.8L1105.95,1004.8L1105.96,1004.8L1105.98,1004.79L1106,1004.79L1106.02,1004.79L1106.03,1004.78L1106.05,1004.78L1106.07,1004.78L1106.09,1004.77L1106.1,1004.77L1106.12,1004.77L1106.14,1004.76L1106.15,1004.76L1106.17,1004.76L1106.18,1004.75L1106.2,1004.75L1106.22,1004.74L1106.23,1004.74L1106.25,1004.73L1106.27,1004.73L1106.28,1004.72L1106.3,1004.72L1106.32,1004.71L1106.33,1004.71L1106.34,1004.7L1106.36,1004.7L1106.37,1004.69L1106.39,1004.69L1106.4,1004.68L1106.42,1004.67L1106.43,1004.67L1106.44,1004.66L1106.46,1004.65L1106.47,1004.65L1106.48,1004.64L1106.5,1004.63L1106.51,1004.63L1106.52,1004.62L1106.53,1004.62L1106.55,1004.61L1106.56,1004.6L1106.57,1004.59L1106.58,1004.59L1106.59,1004.58L1106.61,1004.57L1106.62,1004.56L1106.63,1004.56L1106.64,1004.55L1106.65,1004.54L1106.66,1004.53L1106.67,1004.53L1106.68,1004.52L1106.69,1004.51L1106.7,1004.5L1106.71,1004.5L1106.73,1004.48L1106.73,1004.48L1106.74,1004.47L1106.75,1004.46L1106.76,1004.45L1106.77,1004.44L1106.78,1004.44L1106.79,1004.43L1106.8,1004.42L1106.81,1004.41L1106.81,1004.4L1106.82,1004.39L1106.83,1004.38L1106.84,1004.38L1106.85,1004.36L1106.86,1004.35L1106.86,1004.35L1106.87,1004.33L1106.88,1004.33L1106.89,1004.31L1106.89,1004.31L1106.9,1004.3L1106.91,1004.28L1106.91,1004.27L1106.92,1004.27L1106.92,1004.25L1106.93,1004.24L1106.94,1004.23L1106.94,1004.22L1106.95,1004.21L1106.95,1004.2L1106.96,1004.19L1106.97,1004.18L1106.97,1004.17L1106.98,1004.16L1106.98,1004.14L1106.99,1004.13L1106.99,1004.12L1107,1004.11L1107,1004.1L1107.01,1004.09L1107.01,1004.08L1107.01,1004.07L1107.02,1004.05L1107.02,1004.04L1107.02,1004.03L1107.03,1004.02L1107.03,1004.01L1107.03,1004L1107.04,1003.98L1107.04,1003.97L1107.04,1003.96L1107.04,1003.95L1107.04,1003.94L1107.05,1003.93L1107.05,1003.92L1107.05,1003.9L1107.05,1003.89L1107.05,1003.88L1107.05,1003.87L1107.05,1003.86L1107.05,1003.85L1107.05,1003.84L1107.05,1003.83L1107.05,1003.82L1107.05,1003.81L1107.05,1003.8L1107.05,1003.79L1107.05,1003.78L1107.05,1003.77L1107.05,1003.76L1107.04,1003.74L1107.04,1003.74L1107.04,1003.72L1107.04,1003.71L1107.04,1003.7L1107.03,1003.69L1107.03,1003.68L1107.03,1003.67L1107.02,1003.65L1107.02,1003.64L1107.02,1003.63L1107.01,1003.62L1107.01,1003.61L1107.01,1003.6L1107,1003.58L1107,1003.57L1106.99,1003.56L1106.99,1003.55L1106.98,1003.54L1106.98,1003.53L1106.97,1003.51L1106.97,1003.5L1106.96,1003.49L1106.96,1003.48L1106.95,1003.47L1106.94,1003.46L1106.94,1003.45L1106.93,1003.44L1106.92,1003.43L1106.92,1003.42L1106.91,1003.41L1106.91,1003.4L1106.9,1003.39L1106.89,1003.38L1106.89,1003.37L1106.88,1003.36L1106.87,1003.35L1106.86,1003.34L1106.86,1003.33L1106.85,1003.32L1106.84,1003.31L1106.83,1003.3L1106.82,1003.3L1106.81,1003.28L1106.81,1003.27L1106.8,1003.27L1106.79,1003.25L1106.78,1003.25L1106.77,1003.24L1106.76,1003.23L1106.75,1003.22L1106.74,1003.21L1106.73,1003.21L1106.73,1003.2L1106.71,1003.19L1106.7,1003.18L1106.69,1003.17L1106.68,1003.17L1106.67,1003.16L1106.66,1003.15L1106.65,1003.14L1106.64,1003.13L1106.63,1003.13L1106.62,1003.12L1106.61,1003.11L1106.59,1003.1L1106.58,1003.1L1106.57,1003.09L1106.56,1003.08L1106.55,1003.08L1106.54,1003.07L1106.52,1003.06L1106.51,1003.06L1106.5,1003.05L1106.48,1003.04L1106.47,1003.04L1106.46,1003.03L1106.44,1003.02L1106.43,1003.02L1106.42,1003.01L1106.4,1003L1106.38,1003L1106.37,1002.99L1106.36,1002.99L1106.35,1002.98L1106.33,1002.98L1106.31,1002.97L1106.3,1002.97L1106.28,1002.96L1106.26,1002.95L1106.25,1002.95L1106.24,1002.95L1106.22,1002.94L1106.2,1002.94L1106.18,1002.93L1106.17,1002.93L1106.15,1002.92L1106.13,1002.92L1106.12,1002.92L1106.1,1002.91L1106.08,1002.91L1106.07,1002.9L1106.05,1002.9L1106.03,1002.9L1106.02,1002.9L1106,1002.89L1105.98,1002.89L1105.96,1002.89L1105.94,1002.89L1105.93,1002.89L1105.91,1002.88L1105.89,1002.88L1105.88,1002.88L1105.86,1002.88L1105.84,1002.88L1105.83,1002.88L1105.81,1002.88L1105.8,1002.88L1105.78,1002.88L1105.76,1002.88L1105.75,1002.88Z"/>
        </g>
        <g transform="matrix(0.962961,0,0,1,44.8107,0)">
            <circle cx="1215.69" cy="997.979" r="5.863" style="stroke:black;stroke-width:15.13px;stroke-linecap:round;"/>
        </g>
    </g>
    <g>
        <g id="spoon2" serif:id="spoon" transform="matrix(1.07978,0,0,1.08617,1137.21,-85.6955)">
            <path d="M525.47,756.71C525.47,756.71 342.792,734.72 333.048,1057.79C326.072,1289.14 527.733,1266.06 539.052,1266.06C550.371,1266.06 710.487,1253.98 699.781,1044.21C686.268,779.451 575.273,758.974 525.47,756.71Z" style="fill:rgb(255,234,213);stroke:black;stroke-width:28.17px;stroke-linecap:round;"/>
        </g>
        <g id="spoon3" serif:id="spoon" transform="matrix(0.122417,-0.0910381,0.14784,0.198796,1569.21,692.917)">
            <path d="M525.47,756.71C525.47,756.71 342.792,734.72 333.048,1057.79C326.072,1289.14 527.733,1266.06 539.052,1266.06C550.371,1266.06 710.487,1253.98 699.781,1044.21C686.268,779.451 575.273,758.974 525.47,756.71Z" style="fill:rgb(255,248,241);"/>
        </g>
        <g transform="matrix(0.792506,0,0,1.05187,770.339,-72.8967)">
            <ellipse cx="1105.76" cy="1003.84" rx="7.329" ry="5.863" style="stroke:black;stroke-width:16.25px;stroke-linecap:round;"/>
        </g>
        <g transform="matrix(1,0,0,1,529.039,-19.9116)">
            <circle cx="1215.69" cy="997.979" r="5.863" style="stroke:black;stroke-width:15.13px;stroke-linecap:round;"/>
        </g>
        <path d="M1699.85,1062.71C1689.05,1059.28 1668.68,1063.4 1671.16,1086.05C1672.21,1095.61 1682.48,1102.4 1704.67,1104C1721.84,1105.23 1724.71,1092.57 1724.07,1086.79C1722.63,1073.79 1711.23,1066.33 1699.85,1062.71Z" style="fill:rgb(249,83,92);stroke:black;stroke-width:15.13px;stroke-linecap:round;"/>
    </g>
    <g>
        <g id="spoon4" serif:id="spoon" transform="matrix(1.07978,0,0,1.08617,574.382,568.009)">
            <path d="M525.47,756.71C525.47,756.71 342.792,734.72 333.048,1057.79C326.072,1289.14 527.733,1266.06 539.052,1266.06C550.371,1266.06 710.487,1253.98 699.781,1044.21C686.268,779.451 575.273,758.974 525.47,756.71Z" style="fill:rgb(255,234,213);stroke:black;stroke-width:28.17px;stroke-linecap:round;"/>
        </g>
        <g id="spoon5" serif:id="spoon" transform="matrix(0.122417,-0.0910381,0.14784,0.198796,1003.59,1358.18)">
            <path d="M525.47,756.71C525.47,756.71 342.792,734.72 333.048,1057.79C326.072,1289.14 527.733,1266.06 539.052,1266.06C550.371,1266.06 710.487,1253.98 699.781,1044.21C686.268,779.451 575.273,758.974 525.47,756.71Z" style="fill:rgb(255,248,241);"/>
        </g>
        <g transform="matrix(1,0,0,1,-7.88656,18.402)">
            <g transform="matrix(1,0,0,1,-19.4126,71.3697)">
                <path d="M1059.34,1538.96L1118.18,1602.39" style="fill:none;stroke:black;stroke-width:15.13px;stroke-linecap:round;"/>
            </g>
            <g transform="matrix(1,0,0,1,-19.4126,71.3697)">
                <path d="M1124.46,1539.58L1058.23,1602.39" style="fill:none;stroke:black;stroke-width:15.13px;stroke-linecap:round;"/>
            </g>
        </g>
        <g transform="matrix(0.992105,-0.125409,0.125409,0.992105,-195.824,175.978)">
            <g transform="matrix(1.02855,-2.77556e-17,2.77556e-17,1.00286,-33.5207,-4.60284)">
                <path d="M1174.14,1610.24L1228.99,1677.02" style="fill:none;stroke:black;stroke-width:15.13px;stroke-linecap:round;"/>
            </g>
            <path d="M1232.37,1611.95L1166.14,1671.33" style="fill:none;stroke:black;stroke-width:15.13px;stroke-linecap:round;"/>
        </g>
        <g transform="matrix(1,0,0,1,-3.94328,7.88656)">
            <path d="M1077.18,1753.94L1196.8,1750" style="fill:none;stroke:black;stroke-width:15.13px;stroke-linecap:round;"/>
        </g>
    </g>
    <g>
        <g id="spoon6" serif:id="spoon" transform="matrix(1.07978,0,0,1.08617,1134.28,570.941)">
            <path d="M525.47,756.71C525.47,756.71 342.792,734.72 333.048,1057.79C326.072,1289.14 527.733,1266.06 539.052,1266.06C550.371,1266.06 710.487,1253.98 699.781,1044.21C686.268,779.451 575.273,758.974 525.47,756.71Z" style="fill:rgb(255,234,213);stroke:black;stroke-width:28.17px;stroke-linecap:round;"/>
        </g>
        <g id="spoon7" serif:id="spoon" transform="matrix(0.122417,-0.0910381,0.14784,0.198796,1557.49,1340.59)">
            <path d="M525.47,756.71C525.47,756.71 342.792,734.72 333.048,1057.79C326.072,1289.14 527.733,1266.06 539.052,1266.06C550.371,1266.06 710.487,1253.98 699.781,1044.21C686.268,779.451 575.273,758.974 525.47,756.71Z" style="fill:rgb(255,248,241);"/>
        </g>
        <g transform="matrix(-0.423583,-0.00103525,0.00200363,-0.819807,2193.19,2624.37)">
            <path d="M1092.57,1094.72C1092.57,1094.72 1118.96,1115.24 1162.93,1118.17C1206.9,1121.1 1247.94,1074.2 1247.94,1074.2" style="fill:none;stroke:black;stroke-width:28.63px;stroke-linecap:round;"/>
        </g>
        <g transform="matrix(0.792586,0,0,1,770.835,657.175)">
            <ellipse cx="1105.76" cy="1003.84" rx="7.329" ry="5.863"/>
            <path d="M1105.97,991.152L1106.17,991.155L1106.38,991.161L1106.58,991.168L1106.78,991.177L1106.99,991.188L1107.19,991.202L1107.4,991.217L1107.6,991.235L1107.79,991.254L1108,991.276L1108.2,991.299L1108.39,991.324L1108.59,991.351L1108.79,991.381L1108.99,991.412L1109.18,991.445L1109.37,991.479L1109.57,991.516L1109.77,991.556L1109.95,991.596L1110.15,991.639L1110.34,991.683L1110.52,991.728L1110.72,991.778L1110.9,991.828L1111.08,991.876L1111.26,991.929L1111.46,991.987L1111.64,992.045L1111.82,992.101L1112,992.162L1112.18,992.223L1112.35,992.284L1112.53,992.351L1112.71,992.42L1112.88,992.486L1113.06,992.557L1113.23,992.628L1113.4,992.701L1113.57,992.776L1113.74,992.852L1113.91,992.932L1114.07,993.008L1114.23,993.089L1114.39,993.17L1114.56,993.256L1114.72,993.342L1114.87,993.425L1115.03,993.515L1115.18,993.605L1115.34,993.695L1115.5,993.791L1115.64,993.881L1115.78,993.972L1115.94,994.071L1116.09,994.175L1116.23,994.271L1116.37,994.367L1116.52,994.472L1116.65,994.575L1116.79,994.679L1116.93,994.787L1117.06,994.891L1117.2,994.998L1117.33,995.111L1117.46,995.218L1117.59,995.329L1117.72,995.446L1117.84,995.559L1117.96,995.674L1118.09,995.791L1118.21,995.909L1118.33,996.031L1118.44,996.147L1118.56,996.268L1118.67,996.395L1118.78,996.513L1118.89,996.641L1119,996.768L1119.1,996.89L1119.21,997.021L1119.31,997.154L1119.41,997.285L1119.51,997.411L1119.6,997.539L1119.7,997.675L1119.8,997.815L1119.88,997.945L1119.97,998.084L1120.06,998.218L1120.14,998.355L1120.23,998.499L1120.31,998.638L1120.38,998.778L1120.46,998.921L1120.54,999.068L1120.61,999.207L1120.67,999.346L1120.75,999.495L1120.81,999.648L1120.88,999.795L1120.93,999.936L1120.99,1000.08L1121.05,1000.23L1121.11,1000.39L1121.16,1000.54L1121.21,1000.69L1121.26,1000.84L1121.3,1001L1121.35,1001.15L1121.39,1001.3L1121.42,1001.45L1121.46,1001.61L1121.5,1001.77L1121.53,1001.93L1121.56,1002.09L1121.58,1002.24L1121.61,1002.4L1121.63,1002.56L1121.64,1002.72L1121.66,1002.88L1121.68,1003.04L1121.69,1003.19L1121.7,1003.36L1121.7,1003.52L1121.71,1003.68L1121.71,1003.84L1121.71,1004L1121.7,1004.17L1121.7,1004.33L1121.69,1004.49L1121.68,1004.65L1121.66,1004.8L1121.64,1004.97L1121.63,1005.13L1121.61,1005.28L1121.58,1005.44L1121.56,1005.6L1121.53,1005.75L1121.5,1005.91L1121.46,1006.07L1121.42,1006.23L1121.39,1006.38L1121.35,1006.54L1121.3,1006.69L1121.26,1006.84L1121.21,1007L1121.16,1007.14L1121.11,1007.3L1121.05,1007.45L1120.99,1007.6L1120.93,1007.75L1120.88,1007.89L1120.81,1008.04L1120.75,1008.19L1120.67,1008.34L1120.61,1008.48L1120.54,1008.62L1120.46,1008.76L1120.38,1008.91L1120.31,1009.05L1120.23,1009.19L1120.14,1009.33L1120.06,1009.47L1119.97,1009.6L1119.88,1009.74L1119.8,1009.87L1119.7,1010.01L1119.6,1010.14L1119.51,1010.27L1119.41,1010.4L1119.31,1010.53L1119.21,1010.66L1119.1,1010.79L1119,1010.92L1118.89,1011.04L1118.78,1011.17L1118.67,1011.29L1118.56,1011.42L1118.44,1011.54L1118.33,1011.65L1118.21,1011.77L1118.09,1011.89L1117.96,1012.01L1117.84,1012.12L1117.72,1012.24L1117.59,1012.36L1117.46,1012.47L1117.33,1012.57L1117.2,1012.69L1117.06,1012.79L1116.93,1012.9L1116.79,1013L1116.65,1013.11L1116.52,1013.21L1116.37,1013.32L1116.23,1013.41L1116.09,1013.51L1115.94,1013.61L1115.79,1013.71L1115.64,1013.8L1115.49,1013.9L1115.34,1013.99L1115.18,1014.08L1115.03,1014.17L1114.87,1014.26L1114.72,1014.34L1114.56,1014.43L1114.39,1014.51L1114.23,1014.6L1114.07,1014.68L1113.91,1014.75L1113.74,1014.83L1113.57,1014.91L1113.4,1014.98L1113.23,1015.06L1113.06,1015.13L1112.88,1015.2L1112.71,1015.26L1112.53,1015.33L1112.36,1015.4L1112.18,1015.46L1111.99,1015.52L1111.82,1015.58L1111.64,1015.64L1111.46,1015.7L1111.26,1015.75L1111.08,1015.81L1110.9,1015.86L1110.72,1015.91L1110.52,1015.96L1110.34,1016L1110.15,1016.05L1109.95,1016.09L1109.77,1016.13L1109.57,1016.17L1109.37,1016.2L1109.18,1016.24L1108.99,1016.27L1108.79,1016.3L1108.59,1016.33L1108.39,1016.36L1108.2,1016.38L1108,1016.41L1107.79,1016.43L1107.6,1016.45L1107.4,1016.47L1107.19,1016.48L1106.99,1016.5L1106.78,1016.51L1106.58,1016.52L1106.38,1016.52L1106.17,1016.53L1105.98,1016.53L1105.77,1016.53L1105.55,1016.53L1105.36,1016.53L1105.15,1016.52L1104.95,1016.52L1104.75,1016.51L1104.54,1016.5L1104.34,1016.48L1104.13,1016.47L1103.93,1016.45L1103.74,1016.43L1103.53,1016.41L1103.33,1016.38L1103.13,1016.36L1102.94,1016.33L1102.74,1016.3L1102.54,1016.27L1102.35,1016.24L1102.16,1016.2L1101.96,1016.17L1101.77,1016.13L1101.58,1016.09L1101.38,1016.05L1101.19,1016L1101.01,1015.96L1100.81,1015.91L1100.63,1015.86L1100.45,1015.81L1100.26,1015.75L1100.07,1015.7L1099.89,1015.64L1099.71,1015.58L1099.54,1015.52L1099.35,1015.46L1099.17,1015.4L1099,1015.33L1098.82,1015.26L1098.64,1015.2L1098.47,1015.13L1098.3,1015.06L1098.13,1014.98L1097.96,1014.91L1097.79,1014.83L1097.63,1014.75L1097.46,1014.68L1097.29,1014.59L1097.14,1014.51L1096.98,1014.43L1096.81,1014.34L1096.66,1014.26L1096.5,1014.17L1096.34,1014.08L1096.19,1013.99L1096.04,1013.9L1095.89,1013.8L1095.74,1013.71L1095.59,1013.61L1095.44,1013.51L1095.3,1013.41L1095.15,1013.31L1095.01,1013.21L1094.87,1013.11L1094.74,1013.01L1094.6,1012.9L1094.46,1012.79L1094.33,1012.68L1094.2,1012.57L1094.07,1012.47L1093.94,1012.36L1093.82,1012.24L1093.69,1012.12L1093.56,1012L1093.44,1011.89L1093.33,1011.78L1093.2,1011.66L1093.08,1011.53L1092.97,1011.41L1092.86,1011.29L1092.75,1011.17L1092.63,1011.04L1092.53,1010.92L1092.43,1010.8L1092.32,1010.66L1092.21,1010.53L1092.12,1010.4L1092.02,1010.27L1091.92,1010.14L1091.83,1010L1091.74,1009.87L1091.65,1009.74L1091.56,1009.6L1091.47,1009.47L1091.38,1009.32L1091.3,1009.19L1091.22,1009.05L1091.14,1008.91L1091.07,1008.77L1090.99,1008.62L1090.92,1008.48L1090.85,1008.33L1090.78,1008.18L1090.72,1008.04L1090.65,1007.89L1090.59,1007.74L1090.54,1007.6L1090.48,1007.45L1090.42,1007.3L1090.37,1007.15L1090.32,1006.99L1090.27,1006.84L1090.23,1006.69L1090.18,1006.54L1090.14,1006.38L1090.1,1006.22L1090.07,1006.07L1090.03,1005.91L1090,1005.76L1089.97,1005.6L1089.95,1005.44L1089.92,1005.28L1089.9,1005.12L1089.88,1004.97L1089.87,1004.81L1089.85,1004.65L1089.84,1004.48L1089.83,1004.32L1089.83,1004.17L1089.82,1004L1089.82,1003.84L1089.82,1003.68L1089.83,1003.52L1089.83,1003.36L1089.84,1003.2L1089.85,1003.04L1089.87,1002.88L1089.88,1002.72L1089.9,1002.56L1089.92,1002.4L1089.95,1002.24L1089.97,1002.08L1090,1001.92L1090.03,1001.77L1090.07,1001.62L1090.1,1001.46L1090.14,1001.3L1090.18,1001.15L1090.23,1000.99L1090.27,1000.84L1090.32,1000.69L1090.37,1000.54L1090.42,1000.39L1090.48,1000.23L1090.54,1000.08L1090.59,999.943L1090.65,999.789L1090.72,999.641L1090.78,999.501L1090.85,999.352L1090.92,999.207L1090.99,999.062L1091.07,998.915L1091.14,998.778L1091.22,998.638L1091.3,998.499L1091.38,998.361L1091.47,998.218L1091.56,998.084L1091.65,997.945L1091.74,997.81L1091.83,997.68L1091.92,997.544L1092.02,997.411L1092.12,997.28L1092.21,997.154L1092.32,997.021L1092.43,996.885L1092.53,996.768L1092.63,996.646L1092.75,996.513L1092.86,996.39L1092.97,996.273L1093.08,996.151L1093.2,996.027L1093.33,995.904L1093.44,995.791L1093.56,995.679L1093.69,995.559L1093.82,995.442L1093.94,995.329L1094.07,995.218L1094.2,995.111L1094.33,995.002L1094.46,994.894L1094.6,994.784L1094.74,994.675L1094.87,994.575L1095.01,994.472L1095.15,994.37L1095.3,994.271L1095.44,994.172L1095.59,994.071L1095.74,993.975L1095.89,993.881L1096.03,993.791L1096.19,993.695L1096.34,993.605L1096.5,993.515L1096.66,993.425L1096.81,993.344L1096.98,993.254L1097.14,993.17L1097.29,993.091L1097.46,993.008L1097.63,992.93L1097.79,992.852L1097.96,992.776L1098.13,992.701L1098.3,992.628L1098.47,992.555L1098.64,992.488L1098.82,992.42L1099,992.351L1099.17,992.285L1099.35,992.222L1099.53,992.162L1099.71,992.101L1099.89,992.044L1100.07,991.987L1100.26,991.93L1100.45,991.877L1100.63,991.827L1100.81,991.777L1101.01,991.729L1101.19,991.683L1101.38,991.639L1101.58,991.596L1101.77,991.556L1101.96,991.516L1102.16,991.479L1102.35,991.446L1102.54,991.412L1102.74,991.38L1102.94,991.351L1103.13,991.324L1103.33,991.299L1103.53,991.276L1103.74,991.254L1103.93,991.235L1104.13,991.217L1104.34,991.202L1104.54,991.188L1104.75,991.177L1104.95,991.168L1105.15,991.161L1105.36,991.155L1105.56,991.152L1105.77,991.151L1105.97,991.152ZM1105.74,1002.88L1105.73,1002.88L1105.72,1002.88L1105.7,1002.88L1105.69,1002.88L1105.67,1002.88L1105.65,1002.88L1105.63,1002.88L1105.62,1002.88L1105.6,1002.88L1105.58,1002.89L1105.56,1002.89L1105.55,1002.89L1105.53,1002.89L1105.51,1002.9L1105.5,1002.9L1105.48,1002.9L1105.47,1002.9L1105.45,1002.91L1105.42,1002.91L1105.41,1002.92L1105.39,1002.92L1105.38,1002.92L1105.37,1002.93L1105.34,1002.93L1105.32,1002.94L1105.32,1002.94L1105.3,1002.94L1105.28,1002.95L1105.26,1002.96L1105.25,1002.96L1105.24,1002.96L1105.22,1002.97L1105.2,1002.98L1105.19,1002.98L1105.17,1002.99L1105.16,1002.99L1105.14,1003L1105.13,1003L1105.11,1003.01L1105.1,1003.02L1105.09,1003.02L1105.07,1003.03L1105.06,1003.03L1105.05,1003.04L1105.04,1003.05L1105.02,1003.06L1105,1003.06L1105,1003.07L1104.98,1003.08L1104.97,1003.08L1104.96,1003.09L1104.95,1003.1L1104.93,1003.1L1104.92,1003.11L1104.91,1003.12L1104.89,1003.13L1104.89,1003.13L1104.88,1003.14L1104.87,1003.15L1104.86,1003.16L1104.85,1003.17L1104.83,1003.18L1104.83,1003.18L1104.82,1003.19L1104.8,1003.2L1104.8,1003.2L1104.79,1003.21L1104.78,1003.22L1104.77,1003.23L1104.76,1003.24L1104.75,1003.25L1104.74,1003.26L1104.73,1003.27L1104.73,1003.27L1104.72,1003.28L1104.7,1003.3L1104.7,1003.3L1104.69,1003.31L1104.68,1003.32L1104.68,1003.33L1104.67,1003.34L1104.66,1003.35L1104.65,1003.36L1104.64,1003.37L1104.64,1003.37L1104.63,1003.39L1104.62,1003.4L1104.62,1003.41L1104.61,1003.42L1104.6,1003.43L1104.6,1003.44L1104.59,1003.45L1104.58,1003.46L1104.58,1003.47L1104.57,1003.48L1104.56,1003.5L1104.56,1003.5L1104.56,1003.51L1104.55,1003.52L1104.54,1003.54L1104.54,1003.55L1104.54,1003.56L1104.53,1003.57L1104.53,1003.58L1104.52,1003.6L1104.52,1003.61L1104.52,1003.62L1104.51,1003.63L1104.51,1003.64L1104.51,1003.65L1104.5,1003.67L1104.5,1003.67L1104.5,1003.69L1104.49,1003.7L1104.49,1003.71L1104.49,1003.73L1104.49,1003.74L1104.49,1003.74L1104.48,1003.75L1104.48,1003.77L1104.48,1003.78L1104.48,1003.79L1104.48,1003.8L1104.48,1003.81L1104.48,1003.82L1104.48,1003.83L1104.48,1003.84L1104.48,1003.86L1104.48,1003.88L1104.48,1003.89L1104.48,1003.92L1104.48,1003.93L1104.49,1003.95L1104.49,1003.97L1104.49,1003.98L1104.5,1004L1104.5,1004.02L1104.51,1004.04L1104.51,1004.05L1104.52,1004.07L1104.52,1004.09L1104.53,1004.1L1104.53,1004.11L1104.54,1004.13L1104.54,1004.14L1104.55,1004.16L1104.56,1004.18L1104.57,1004.2L1104.58,1004.22L1104.59,1004.23L1104.6,1004.25L1104.61,1004.26L1104.62,1004.28L1104.63,1004.3L1104.64,1004.32L1104.66,1004.33L1104.67,1004.35L1104.68,1004.36L1104.69,1004.37L1104.7,1004.39L1104.72,1004.4L1104.73,1004.42L1104.74,1004.43L1104.76,1004.44L1104.78,1004.46L1104.79,1004.47L1104.8,1004.48L1104.82,1004.5L1104.83,1004.51L1104.85,1004.52L1104.87,1004.53L1104.89,1004.55L1104.89,1004.55L1104.91,1004.57L1104.93,1004.58L1104.96,1004.59L1104.98,1004.61L1105,1004.62L1105.02,1004.63L1105.04,1004.64L1105.05,1004.64L1105.07,1004.65L1105.09,1004.66L1105.11,1004.67L1105.14,1004.69L1105.17,1004.7L1105.19,1004.7L1105.21,1004.71L1105.23,1004.72L1105.26,1004.73L1105.28,1004.73L1105.3,1004.74L1105.32,1004.75L1105.34,1004.75L1105.37,1004.76L1105.39,1004.76L1105.41,1004.77L1105.42,1004.77L1105.45,1004.78L1105.47,1004.78L1105.48,1004.78L1105.5,1004.78L1105.51,1004.79L1105.53,1004.79L1105.55,1004.79L1105.56,1004.79L1105.58,1004.8L1105.6,1004.8L1105.63,1004.8L1105.65,1004.8L1105.67,1004.8L1105.7,1004.81L1105.72,1004.81L1105.73,1004.81L1105.75,1004.81L1105.77,1004.81L1105.78,1004.81L1105.8,1004.81L1105.81,1004.81L1105.83,1004.81L1105.84,1004.81L1105.86,1004.8L1105.88,1004.8L1105.9,1004.8L1105.91,1004.8L1105.93,1004.8L1105.95,1004.8L1105.96,1004.79L1105.98,1004.79L1106,1004.79L1106.01,1004.79L1106.03,1004.78L1106.05,1004.78L1106.06,1004.78L1106.08,1004.78L1106.1,1004.77L1106.12,1004.77L1106.14,1004.76L1106.15,1004.76L1106.17,1004.76L1106.19,1004.75L1106.2,1004.75L1106.21,1004.75L1106.23,1004.74L1106.25,1004.73L1106.27,1004.73L1106.28,1004.72L1106.3,1004.72L1106.31,1004.72L1106.33,1004.71L1106.34,1004.7L1106.36,1004.7L1106.38,1004.69L1106.38,1004.69L1106.4,1004.68L1106.42,1004.67L1106.43,1004.67L1106.44,1004.66L1106.46,1004.65L1106.47,1004.65L1106.49,1004.64L1106.49,1004.64L1106.51,1004.63L1106.53,1004.62L1106.53,1004.62L1106.55,1004.61L1106.56,1004.6L1106.57,1004.59L1106.59,1004.58L1106.59,1004.58L1106.6,1004.57L1106.62,1004.57L1106.63,1004.56L1106.64,1004.55L1106.65,1004.54L1106.66,1004.53L1106.67,1004.53L1106.68,1004.52L1106.69,1004.51L1106.71,1004.5L1106.72,1004.49L1106.73,1004.48L1106.73,1004.48L1106.74,1004.47L1106.75,1004.46L1106.76,1004.45L1106.77,1004.44L1106.78,1004.44L1106.78,1004.43L1106.8,1004.42L1106.81,1004.41L1106.82,1004.4L1106.82,1004.39L1106.83,1004.38L1106.84,1004.37L1106.85,1004.36L1106.85,1004.36L1106.86,1004.35L1106.87,1004.33L1106.88,1004.33L1106.88,1004.32L1106.89,1004.31L1106.9,1004.29L1106.9,1004.29L1106.91,1004.28L1106.92,1004.26L1106.92,1004.26L1106.93,1004.24L1106.94,1004.23L1106.94,1004.22L1106.95,1004.21L1106.95,1004.21L1106.96,1004.19L1106.97,1004.18L1106.97,1004.17L1106.98,1004.15L1106.98,1004.15L1106.99,1004.14L1107,1004.12L1107,1004.11L1107,1004.1L1107.01,1004.09L1107.01,1004.08L1107.02,1004.06L1107.02,1004.05L1107.02,1004.05L1107.02,1004.03L1107.03,1004.02L1107.03,1004L1107.03,1003.99L1107.04,1003.98L1107.04,1003.98L1107.04,1003.97L1107.04,1003.95L1107.04,1003.94L1107.05,1003.92L1107.05,1003.92L1107.05,1003.91L1107.05,1003.89L1107.05,1003.88L1107.05,1003.87L1107.05,1003.86L1107.05,1003.85L1107.05,1003.84L1107.05,1003.83L1107.05,1003.82L1107.05,1003.82L1107.05,1003.8L1107.05,1003.79L1107.05,1003.78L1107.05,1003.77L1107.05,1003.76L1107.04,1003.74L1107.04,1003.74L1107.04,1003.72L1107.04,1003.71L1107.04,1003.7L1107.03,1003.69L1107.03,1003.68L1107.03,1003.67L1107.02,1003.65L1107.02,1003.64L1107.02,1003.63L1107.02,1003.62L1107.01,1003.61L1107.01,1003.6L1107,1003.58L1107,1003.57L1107,1003.57L1106.99,1003.55L1106.98,1003.54L1106.98,1003.53L1106.97,1003.52L1106.97,1003.5L1106.96,1003.49L1106.95,1003.48L1106.95,1003.47L1106.94,1003.46L1106.94,1003.45L1106.93,1003.44L1106.92,1003.43L1106.92,1003.42L1106.91,1003.41L1106.9,1003.4L1106.9,1003.39L1106.89,1003.38L1106.88,1003.37L1106.88,1003.36L1106.87,1003.35L1106.86,1003.34L1106.85,1003.32L1106.85,1003.32L1106.84,1003.32L1106.83,1003.3L1106.82,1003.29L1106.82,1003.29L1106.81,1003.28L1106.8,1003.26L1106.78,1003.25L1106.78,1003.25L1106.77,1003.24L1106.76,1003.23L1106.75,1003.22L1106.74,1003.21L1106.73,1003.2L1106.73,1003.2L1106.72,1003.19L1106.71,1003.18L1106.69,1003.17L1106.68,1003.16L1106.67,1003.16L1106.66,1003.15L1106.65,1003.14L1106.64,1003.13L1106.63,1003.13L1106.62,1003.12L1106.61,1003.11L1106.59,1003.1L1106.58,1003.1L1106.57,1003.09L1106.56,1003.08L1106.55,1003.08L1106.53,1003.07L1106.53,1003.07L1106.51,1003.05L1106.49,1003.05L1106.49,1003.04L1106.47,1003.03L1106.46,1003.03L1106.44,1003.02L1106.43,1003.02L1106.42,1003.01L1106.4,1003L1106.38,1003L1106.38,1002.99L1106.36,1002.99L1106.34,1002.98L1106.33,1002.98L1106.31,1002.97L1106.29,1002.96L1106.28,1002.96L1106.27,1002.96L1106.25,1002.95L1106.23,1002.94L1106.21,1002.94L1106.2,1002.94L1106.19,1002.93L1106.17,1002.93L1106.15,1002.92L1106.14,1002.92L1106.12,1002.92L1106.1,1002.91L1106.08,1002.91L1106.06,1002.9L1106.05,1002.9L1106.03,1002.9L1106.01,1002.9L1106,1002.89L1105.98,1002.89L1105.96,1002.89L1105.95,1002.89L1105.93,1002.88L1105.91,1002.88L1105.9,1002.88L1105.88,1002.88L1105.86,1002.88L1105.84,1002.88L1105.83,1002.88L1105.81,1002.88L1105.8,1002.88L1105.79,1002.88L1105.77,1002.88L1105.74,1002.88Z"/>
        </g>
        <g transform="matrix(0.792586,0,0,1,868.291,655.858)">
            <ellipse cx="1105.76" cy="1003.84" rx="7.329" ry="5.863"/>
            <path d="M1105.97,991.152L1106.17,991.155L1106.38,991.16L1106.58,991.168L1106.79,991.177L1106.99,991.189L1107.19,991.202L1107.39,991.217L1107.6,991.235L1107.79,991.254L1107.99,991.275L1108.2,991.299L1108.39,991.324L1108.59,991.351L1108.79,991.381L1108.99,991.412L1109.18,991.445L1109.38,991.481L1109.57,991.517L1109.77,991.556L1109.96,991.597L1110.14,991.637L1110.34,991.683L1110.53,991.73L1110.71,991.776L1110.9,991.825L1111.09,991.878L1111.27,991.931L1111.45,991.985L1111.64,992.043L1111.82,992.101L1112,992.162L1112.19,992.225L1112.36,992.287L1112.53,992.351L1112.71,992.417L1112.88,992.486L1113.06,992.557L1113.23,992.628L1113.4,992.7L1113.57,992.776L1113.74,992.854L1113.9,992.926L1114.07,993.008L1114.24,993.091L1114.4,993.173L1114.56,993.256L1114.71,993.338L1114.88,993.428L1115.03,993.515L1115.18,993.604L1115.34,993.695L1115.49,993.787L1115.64,993.88L1115.79,993.975L1115.94,994.074L1116.09,994.172L1116.23,994.271L1116.37,994.367L1116.51,994.468L1116.66,994.578L1116.8,994.682L1116.93,994.784L1117.06,994.89L1117.2,994.998L1117.33,995.107L1117.46,995.221L1117.59,995.333L1117.72,995.446L1117.84,995.56L1117.96,995.671L1118.09,995.791L1118.21,995.912L1118.33,996.028L1118.44,996.147L1118.56,996.271L1118.67,996.39L1118.78,996.513L1118.89,996.642L1119,996.768L1119.11,996.894L1119.21,997.018L1119.31,997.151L1119.41,997.285L1119.51,997.411L1119.6,997.542L1119.7,997.675L1119.8,997.815L1119.88,997.945L1119.97,998.081L1120.06,998.22L1120.14,998.355L1120.23,998.499L1120.31,998.638L1120.38,998.775L1120.46,998.921L1120.54,999.068L1120.61,999.209L1120.68,999.349L1120.74,999.492L1120.81,999.647L1120.87,999.789L1120.93,999.936L1121,1000.09L1121.05,1000.23L1121.11,1000.39L1121.16,1000.54L1121.21,1000.69L1121.26,1000.84L1121.3,1001L1121.35,1001.15L1121.39,1001.3L1121.42,1001.45L1121.46,1001.61L1121.5,1001.77L1121.53,1001.93L1121.56,1002.09L1121.58,1002.24L1121.61,1002.4L1121.63,1002.56L1121.64,1002.72L1121.66,1002.87L1121.68,1003.04L1121.69,1003.2L1121.7,1003.36L1121.7,1003.52L1121.71,1003.68L1121.71,1003.84L1121.71,1004L1121.7,1004.17L1121.7,1004.33L1121.69,1004.48L1121.68,1004.65L1121.66,1004.81L1121.64,1004.97L1121.63,1005.13L1121.61,1005.28L1121.58,1005.44L1121.56,1005.6L1121.53,1005.75L1121.5,1005.91L1121.46,1006.08L1121.42,1006.23L1121.39,1006.38L1121.35,1006.54L1121.3,1006.69L1121.26,1006.84L1121.21,1007L1121.16,1007.14L1121.11,1007.3L1121.05,1007.45L1121,1007.59L1120.93,1007.75L1120.87,1007.89L1120.81,1008.04L1120.74,1008.19L1120.68,1008.34L1120.61,1008.48L1120.54,1008.62L1120.46,1008.76L1120.38,1008.91L1120.31,1009.05L1120.23,1009.19L1120.14,1009.33L1120.06,1009.46L1119.97,1009.6L1119.88,1009.74L1119.8,1009.87L1119.7,1010.01L1119.6,1010.14L1119.51,1010.27L1119.41,1010.4L1119.31,1010.53L1119.21,1010.67L1119.11,1010.79L1119,1010.92L1118.89,1011.04L1118.78,1011.17L1118.67,1011.29L1118.56,1011.41L1118.44,1011.54L1118.33,1011.66L1118.21,1011.77L1118.09,1011.89L1117.96,1012.01L1117.84,1012.12L1117.72,1012.24L1117.59,1012.35L1117.46,1012.46L1117.33,1012.58L1117.2,1012.69L1117.06,1012.79L1116.93,1012.9L1116.8,1013L1116.66,1013.11L1116.51,1013.22L1116.37,1013.32L1116.23,1013.41L1116.09,1013.51L1115.94,1013.61L1115.79,1013.71L1115.64,1013.8L1115.49,1013.9L1115.34,1013.99L1115.18,1014.08L1115.03,1014.17L1114.88,1014.26L1114.71,1014.35L1114.56,1014.43L1114.4,1014.51L1114.24,1014.59L1114.07,1014.68L1113.9,1014.76L1113.74,1014.83L1113.57,1014.91L1113.4,1014.98L1113.23,1015.06L1113.06,1015.13L1112.88,1015.2L1112.71,1015.27L1112.53,1015.33L1112.36,1015.4L1112.19,1015.46L1112,1015.52L1111.82,1015.58L1111.64,1015.64L1111.45,1015.7L1111.27,1015.75L1111.09,1015.81L1110.9,1015.86L1110.71,1015.91L1110.53,1015.95L1110.34,1016L1110.15,1016.04L1109.96,1016.09L1109.76,1016.13L1109.57,1016.17L1109.38,1016.2L1109.18,1016.24L1108.99,1016.27L1108.79,1016.3L1108.59,1016.33L1108.39,1016.36L1108.2,1016.38L1107.99,1016.41L1107.79,1016.43L1107.6,1016.45L1107.39,1016.47L1107.19,1016.48L1106.99,1016.5L1106.79,1016.51L1106.58,1016.52L1106.38,1016.52L1106.17,1016.53L1105.97,1016.53L1105.76,1016.53L1105.56,1016.53L1105.36,1016.53L1105.15,1016.52L1104.95,1016.52L1104.74,1016.51L1104.53,1016.5L1104.34,1016.48L1104.14,1016.47L1103.93,1016.45L1103.74,1016.43L1103.54,1016.41L1103.33,1016.38L1103.13,1016.36L1102.94,1016.33L1102.74,1016.3L1102.54,1016.27L1102.35,1016.24L1102.15,1016.2L1101.96,1016.17L1101.77,1016.13L1101.57,1016.09L1101.38,1016.04L1101.19,1016L1101,1015.95L1100.82,1015.91L1100.63,1015.86L1100.44,1015.81L1100.25,1015.75L1100.08,1015.7L1099.89,1015.64L1099.71,1015.58L1099.52,1015.52L1099.35,1015.46L1099.17,1015.4L1099,1015.33L1098.82,1015.27L1098.64,1015.2L1098.47,1015.13L1098.3,1015.06L1098.13,1014.98L1097.96,1014.91L1097.79,1014.83L1097.63,1014.76L1097.46,1014.68L1097.29,1014.59L1097.13,1014.51L1096.98,1014.43L1096.81,1014.34L1096.65,1014.26L1096.5,1014.17L1096.34,1014.08L1096.19,1013.99L1096.03,1013.89L1095.89,1013.8L1095.74,1013.71L1095.59,1013.61L1095.45,1013.51L1095.3,1013.41L1095.15,1013.31L1095.02,1013.22L1094.87,1013.11L1094.73,1013L1094.6,1012.9L1094.46,1012.79L1094.33,1012.68L1094.2,1012.58L1094.07,1012.46L1093.94,1012.35L1093.82,1012.24L1093.69,1012.12L1093.56,1012.01L1093.44,1011.89L1093.32,1011.77L1093.2,1011.66L1093.09,1011.54L1092.97,1011.41L1092.86,1011.29L1092.75,1011.17L1092.64,1011.04L1092.53,1010.92L1092.42,1010.79L1092.32,1010.67L1092.22,1010.54L1092.12,1010.4L1092.02,1010.27L1091.92,1010.14L1091.83,1010L1091.74,1009.87L1091.65,1009.74L1091.56,1009.6L1091.47,1009.46L1091.38,1009.32L1091.3,1009.19L1091.22,1009.05L1091.15,1008.91L1091.07,1008.76L1090.99,1008.62L1090.92,1008.48L1090.85,1008.33L1090.78,1008.19L1090.72,1008.04L1090.65,1007.89L1090.59,1007.74L1090.53,1007.59L1090.48,1007.45L1090.42,1007.3L1090.37,1007.15L1090.32,1006.99L1090.27,1006.84L1090.23,1006.69L1090.18,1006.54L1090.14,1006.38L1090.1,1006.22L1090.07,1006.07L1090.03,1005.91L1090,1005.76L1089.97,1005.61L1089.95,1005.44L1089.92,1005.28L1089.9,1005.12L1089.88,1004.97L1089.87,1004.81L1089.85,1004.65L1089.84,1004.48L1089.83,1004.32L1089.83,1004.17L1089.82,1004L1089.82,1003.84L1089.82,1003.68L1089.83,1003.52L1089.83,1003.36L1089.84,1003.2L1089.85,1003.04L1089.87,1002.87L1089.88,1002.72L1089.9,1002.56L1089.92,1002.4L1089.95,1002.24L1089.97,1002.08L1090,1001.92L1090.03,1001.77L1090.07,1001.62L1090.1,1001.46L1090.14,1001.3L1090.18,1001.15L1090.23,1000.99L1090.27,1000.84L1090.32,1000.69L1090.37,1000.54L1090.42,1000.38L1090.48,1000.23L1090.53,1000.09L1090.59,999.942L1090.65,999.789L1090.72,999.641L1090.78,999.499L1090.85,999.355L1090.92,999.203L1090.99,999.062L1091.07,998.921L1091.15,998.775L1091.22,998.638L1091.3,998.499L1091.38,998.361L1091.47,998.22L1091.56,998.081L1091.65,997.945L1091.74,997.809L1091.83,997.681L1091.92,997.547L1092.02,997.411L1092.12,997.279L1092.22,997.145L1092.32,997.018L1092.42,996.894L1092.53,996.768L1092.64,996.642L1092.75,996.513L1092.86,996.39L1092.97,996.271L1093.09,996.147L1093.2,996.028L1093.32,995.912L1093.44,995.791L1093.56,995.675L1093.69,995.56L1093.82,995.442L1093.94,995.333L1094.07,995.221L1094.2,995.107L1094.33,995.002L1094.46,994.89L1094.6,994.78L1094.73,994.682L1094.87,994.578L1095.02,994.468L1095.15,994.371L1095.3,994.27L1095.45,994.169L1095.59,994.074L1095.74,993.975L1095.89,993.88L1096.03,993.79L1096.19,993.695L1096.34,993.604L1096.5,993.515L1096.65,993.428L1096.81,993.341L1096.98,993.254L1097.13,993.173L1097.29,993.091L1097.46,993.008L1097.63,992.926L1097.79,992.852L1097.96,992.776L1098.13,992.701L1098.3,992.628L1098.47,992.556L1098.64,992.487L1098.82,992.417L1099,992.351L1099.17,992.287L1099.35,992.224L1099.52,992.163L1099.71,992.101L1099.89,992.042L1100.08,991.985L1100.25,991.932L1100.44,991.879L1100.63,991.825L1100.82,991.775L1101,991.731L1101.19,991.683L1101.39,991.637L1101.57,991.597L1101.77,991.556L1101.96,991.517L1102.15,991.481L1102.35,991.445L1102.54,991.412L1102.74,991.38L1102.94,991.351L1103.13,991.324L1103.33,991.299L1103.54,991.275L1103.74,991.254L1103.93,991.235L1104.14,991.217L1104.34,991.202L1104.53,991.189L1104.74,991.177L1104.95,991.168L1105.15,991.16L1105.36,991.155L1105.56,991.152L1105.76,991.151L1105.97,991.152ZM1105.75,1002.88L1105.73,1002.88L1105.72,1002.88L1105.7,1002.88L1105.68,1002.88L1105.66,1002.88L1105.65,1002.88L1105.64,1002.88L1105.62,1002.88L1105.6,1002.88L1105.59,1002.89L1105.56,1002.89L1105.55,1002.89L1105.53,1002.89L1105.51,1002.9L1105.5,1002.9L1105.48,1002.9L1105.46,1002.91L1105.45,1002.91L1105.43,1002.91L1105.41,1002.92L1105.39,1002.92L1105.38,1002.92L1105.36,1002.93L1105.35,1002.93L1105.33,1002.94L1105.31,1002.94L1105.29,1002.95L1105.28,1002.95L1105.26,1002.95L1105.25,1002.96L1105.23,1002.97L1105.21,1002.97L1105.2,1002.98L1105.19,1002.98L1105.17,1002.99L1105.16,1002.99L1105.14,1003L1105.13,1003L1105.12,1003.01L1105.1,1003.02L1105.08,1003.02L1105.08,1003.03L1105.06,1003.03L1105.04,1003.04L1105.03,1003.05L1105.02,1003.06L1105.01,1003.06L1104.99,1003.07L1104.98,1003.08L1104.97,1003.08L1104.96,1003.09L1104.95,1003.1L1104.93,1003.1L1104.92,1003.11L1104.91,1003.12L1104.9,1003.13L1104.89,1003.13L1104.88,1003.14L1104.87,1003.15L1104.85,1003.16L1104.84,1003.17L1104.84,1003.17L1104.83,1003.18L1104.82,1003.19L1104.81,1003.2L1104.8,1003.21L1104.79,1003.22L1104.78,1003.22L1104.77,1003.23L1104.76,1003.24L1104.75,1003.25L1104.74,1003.26L1104.73,1003.26L1104.73,1003.27L1104.71,1003.28L1104.71,1003.29L1104.7,1003.3L1104.69,1003.31L1104.68,1003.32L1104.67,1003.33L1104.67,1003.34L1104.66,1003.35L1104.65,1003.36L1104.64,1003.37L1104.64,1003.38L1104.63,1003.39L1104.62,1003.4L1104.62,1003.41L1104.61,1003.42L1104.6,1003.43L1104.6,1003.44L1104.59,1003.45L1104.58,1003.46L1104.58,1003.47L1104.57,1003.48L1104.56,1003.5L1104.56,1003.51L1104.56,1003.51L1104.55,1003.52L1104.54,1003.54L1104.54,1003.55L1104.54,1003.56L1104.53,1003.58L1104.53,1003.58L1104.52,1003.6L1104.52,1003.61L1104.52,1003.62L1104.51,1003.63L1104.51,1003.64L1104.51,1003.65L1104.5,1003.67L1104.5,1003.67L1104.5,1003.68L1104.49,1003.7L1104.49,1003.71L1104.49,1003.72L1104.49,1003.74L1104.49,1003.75L1104.48,1003.75L1104.48,1003.77L1104.48,1003.78L1104.48,1003.79L1104.48,1003.8L1104.48,1003.81L1104.48,1003.82L1104.48,1003.83L1104.48,1003.84L1104.48,1003.86L1104.48,1003.88L1104.48,1003.89L1104.48,1003.92L1104.49,1003.94L1104.49,1003.96L1104.49,1003.98L1104.5,1004L1104.5,1004.02L1104.51,1004.04L1104.51,1004.05L1104.52,1004.07L1104.52,1004.09L1104.53,1004.11L1104.54,1004.13L1104.54,1004.14L1104.55,1004.16L1104.56,1004.18L1104.56,1004.19L1104.57,1004.2L1104.58,1004.22L1104.59,1004.23L1104.6,1004.25L1104.61,1004.27L1104.62,1004.28L1104.63,1004.3L1104.64,1004.32L1104.66,1004.33L1104.67,1004.35L1104.69,1004.37L1104.7,1004.38L1104.71,1004.4L1104.73,1004.41L1104.74,1004.42L1104.75,1004.44L1104.77,1004.45L1104.79,1004.47L1104.8,1004.48L1104.81,1004.49L1104.83,1004.5L1104.84,1004.51L1104.85,1004.52L1104.87,1004.54L1104.89,1004.55L1104.91,1004.56L1104.92,1004.57L1104.95,1004.59L1104.97,1004.6L1104.99,1004.61L1105.02,1004.63L1105.03,1004.63L1105.04,1004.64L1105.06,1004.65L1105.08,1004.66L1105.1,1004.67L1105.13,1004.68L1105.14,1004.69L1105.16,1004.69L1105.17,1004.7L1105.19,1004.7L1105.21,1004.71L1105.23,1004.72L1105.25,1004.72L1105.26,1004.73L1105.28,1004.74L1105.31,1004.74L1105.33,1004.75L1105.36,1004.76L1105.38,1004.76L1105.41,1004.77L1105.42,1004.77L1105.45,1004.78L1105.46,1004.78L1105.48,1004.78L1105.5,1004.78L1105.51,1004.79L1105.53,1004.79L1105.55,1004.79L1105.56,1004.79L1105.59,1004.8L1105.62,1004.8L1105.64,1004.8L1105.66,1004.8L1105.68,1004.81L1105.7,1004.81L1105.72,1004.81L1105.73,1004.81L1105.75,1004.81L1105.76,1004.81L1105.78,1004.81L1105.8,1004.81L1105.81,1004.81L1105.83,1004.81L1105.85,1004.81L1105.87,1004.8L1105.88,1004.8L1105.89,1004.8L1105.91,1004.8L1105.93,1004.8L1105.94,1004.8L1105.96,1004.79L1105.98,1004.79L1106,1004.79L1106.01,1004.79L1106.03,1004.78L1106.05,1004.78L1106.07,1004.78L1106.08,1004.78L1106.1,1004.77L1106.12,1004.77L1106.13,1004.77L1106.15,1004.76L1106.17,1004.75L1106.18,1004.75L1106.19,1004.75L1106.22,1004.74L1106.24,1004.74L1106.25,1004.74L1106.26,1004.73L1106.28,1004.72L1106.3,1004.72L1106.32,1004.71L1106.33,1004.71L1106.34,1004.7L1106.36,1004.7L1106.38,1004.69L1106.38,1004.69L1106.4,1004.68L1106.42,1004.67L1106.43,1004.67L1106.44,1004.66L1106.45,1004.66L1106.47,1004.65L1106.49,1004.64L1106.5,1004.63L1106.51,1004.63L1106.52,1004.62L1106.54,1004.61L1106.55,1004.61L1106.56,1004.6L1106.57,1004.59L1106.59,1004.58L1106.59,1004.58L1106.61,1004.57L1106.62,1004.56L1106.63,1004.56L1106.64,1004.55L1106.65,1004.54L1106.66,1004.54L1106.68,1004.52L1106.69,1004.51L1106.69,1004.51L1106.7,1004.5L1106.72,1004.49L1106.72,1004.49L1106.73,1004.48L1106.74,1004.47L1106.75,1004.46L1106.76,1004.45L1106.77,1004.44L1106.78,1004.44L1106.79,1004.42L1106.8,1004.42L1106.8,1004.41L1106.82,1004.4L1106.82,1004.39L1106.83,1004.38L1106.84,1004.37L1106.85,1004.36L1106.86,1004.35L1106.86,1004.35L1106.87,1004.34L1106.88,1004.33L1106.88,1004.32L1106.89,1004.3L1106.9,1004.29L1106.9,1004.29L1106.91,1004.28L1106.92,1004.27L1106.93,1004.25L1106.93,1004.24L1106.94,1004.23L1106.94,1004.22L1106.95,1004.22L1106.96,1004.2L1106.96,1004.19L1106.97,1004.18L1106.98,1004.17L1106.98,1004.15L1106.98,1004.15L1106.99,1004.14L1107,1004.12L1107,1004.11L1107,1004.1L1107,1004.1L1107.01,1004.08L1107.02,1004.06L1107.02,1004.05L1107.02,1004.05L1107.02,1004.03L1107.03,1004.02L1107.03,1004.01L1107.03,1003.99L1107.04,1003.98L1107.04,1003.98L1107.04,1003.97L1107.04,1003.95L1107.04,1003.94L1107.05,1003.92L1107.05,1003.92L1107.05,1003.91L1107.05,1003.89L1107.05,1003.88L1107.05,1003.87L1107.05,1003.86L1107.05,1003.85L1107.05,1003.84L1107.05,1003.83L1107.05,1003.82L1107.05,1003.82L1107.05,1003.8L1107.05,1003.79L1107.05,1003.78L1107.05,1003.77L1107.05,1003.76L1107.04,1003.75L1107.04,1003.74L1107.04,1003.72L1107.04,1003.71L1107.04,1003.7L1107.03,1003.69L1107.03,1003.68L1107.03,1003.67L1107.02,1003.65L1107.02,1003.64L1107.02,1003.63L1107.02,1003.62L1107.01,1003.61L1107,1003.59L1107,1003.58L1107,1003.58L1107,1003.57L1106.99,1003.55L1106.98,1003.54L1106.98,1003.53L1106.98,1003.52L1106.97,1003.5L1106.96,1003.49L1106.96,1003.48L1106.95,1003.47L1106.94,1003.46L1106.94,1003.45L1106.93,1003.44L1106.93,1003.43L1106.92,1003.42L1106.91,1003.41L1106.9,1003.4L1106.9,1003.39L1106.89,1003.38L1106.88,1003.37L1106.88,1003.36L1106.87,1003.34L1106.86,1003.34L1106.86,1003.33L1106.85,1003.32L1106.84,1003.31L1106.83,1003.3L1106.82,1003.29L1106.82,1003.28L1106.8,1003.27L1106.8,1003.26L1106.79,1003.26L1106.78,1003.25L1106.77,1003.24L1106.76,1003.23L1106.75,1003.22L1106.74,1003.22L1106.73,1003.21L1106.72,1003.2L1106.72,1003.19L1106.7,1003.18L1106.69,1003.17L1106.69,1003.17L1106.68,1003.16L1106.66,1003.15L1106.65,1003.14L1106.64,1003.13L1106.63,1003.13L1106.62,1003.12L1106.61,1003.11L1106.59,1003.1L1106.59,1003.1L1106.57,1003.09L1106.56,1003.08L1106.55,1003.08L1106.54,1003.07L1106.52,1003.06L1106.51,1003.05L1106.5,1003.05L1106.49,1003.04L1106.47,1003.03L1106.45,1003.03L1106.44,1003.02L1106.43,1003.02L1106.42,1003.01L1106.4,1003L1106.38,1003L1106.38,1002.99L1106.36,1002.99L1106.34,1002.98L1106.33,1002.98L1106.32,1002.97L1106.3,1002.97L1106.28,1002.96L1106.26,1002.95L1106.25,1002.95L1106.24,1002.95L1106.22,1002.94L1106.19,1002.93L1106.18,1002.93L1106.17,1002.93L1106.15,1002.92L1106.14,1002.92L1106.12,1002.92L1106.09,1002.91L1106.08,1002.91L1106.07,1002.91L1106.05,1002.9L1106.03,1002.9L1106.01,1002.9L1106,1002.89L1105.98,1002.89L1105.96,1002.89L1105.94,1002.89L1105.93,1002.88L1105.91,1002.88L1105.89,1002.88L1105.88,1002.88L1105.87,1002.88L1105.85,1002.88L1105.83,1002.88L1105.81,1002.88L1105.8,1002.88L1105.78,1002.88L1105.76,1002.88L1105.75,1002.88Z"/>
        </g>
        <path d="M1618.47,1599.44L1665.97,1653.44" style="fill:none;stroke:black;stroke-width:15.13px;stroke-linecap:round;"/>
        <path d="M1777.21,1601.57L1730.51,1649.49" style="fill:none;stroke:black;stroke-width:15.13px;stroke-linecap:round;"/>
    </g>
    <g>
        <g transform="matrix(0.408188,0,0,3.64931,264.672,-3303.21)">
            <rect x="462.084" y="1246.82" width="294.291" height="350.886" style="fill:rgb(162,162,162);"/>
            <path d="M765.387,1242.4L773.946,1242.74L781.625,1243.28L788.037,1243.99L792.862,1244.85L795.857,1245.81L796.873,1246.82L796.873,1597.7L795.857,1598.71L792.862,1599.67L788.037,1600.53L781.625,1601.25L773.946,1601.79L765.387,1602.12L756.375,1602.23L462.084,1602.23L453.072,1602.12L444.513,1601.79L436.834,1601.25L430.422,1600.53L425.597,1599.67L422.602,1598.71L421.586,1597.7L421.586,1246.82L422.602,1245.81L425.597,1244.85L430.422,1243.99L436.834,1243.28L444.513,1242.74L453.072,1242.4L462.084,1242.29L756.375,1242.29L765.387,1242.4ZM502.581,1251.35L502.581,1593.17L715.878,1593.17L715.878,1251.35L502.581,1251.35Z"/>
        </g>
        <g id="spoon8" serif:id="spoon" transform="matrix(1.31913,0,0,1.28148,-164.858,-321.37)">
            <path d="M525.47,756.71C525.47,756.71 342.792,734.72 333.048,1057.79C326.072,1289.14 527.733,1266.06 539.052,1266.06C550.371,1266.06 710.487,1253.98 699.781,1044.21C686.268,779.451 575.273,758.974 525.47,756.71Z" style="fill:rgb(170,170,170);stroke:black;stroke-width:23.46px;stroke-linecap:round;"/>
        </g>
        <g id="spoon9" serif:id="spoon" transform="matrix(1.12374,0,0,1.12954,-59.6161,-177.73)">
            <path d="M525.47,756.71C525.47,756.71 342.792,734.72 333.048,1057.79C326.072,1289.14 527.733,1266.06 539.052,1266.06C550.371,1266.06 710.487,1253.98 699.781,1044.21C686.268,779.451 575.273,758.974 525.47,756.71Z" style="fill:rgb(208,208,208);"/>
        </g>
        <g id="spoon10" serif:id="spoon" transform="matrix(0.218052,-0.131505,0.167762,0.278171,129.584,910.092)">
            <path d="M525.47,756.71C525.47,756.71 342.792,734.72 333.048,1057.79C326.072,1289.14 527.733,1266.06 539.052,1266.06C550.371,1266.06 710.487,1253.98 699.781,1044.21C686.268,779.451 575.273,758.974 525.47,756.71Z" style="fill:rgb(225,225,225);"/>
        </g>
        <g id="spoon11" serif:id="spoon" transform="matrix(0.122417,-0.0910381,0.14784,0.198796,405.74,628.443)">
            <path d="M525.47,756.71C525.47,756.71 342.792,734.72 333.048,1057.79C326.072,1289.14 527.733,1266.06 539.052,1266.06C550.371,1266.06 710.487,1253.98 699.781,1044.21C686.268,779.451 575.273,758.974 525.47,756.71Z" style="fill:rgb(225,225,225);"/>
        </g>
    </g>
</svg>
